<svg id="visual" viewBox="0 0 960 200" width="960" height="200" xmlns="http://www.w3.org/2000/svg" xmlns:xlink="http://www.w3.org/1999/xlink" version="1.1"><rect x="0" y="0" width="960" height="200" fill="#00246B"></rect><path d="M0 127L20 122.3C40 117.7 80 108.3 120 113.2C160 118 200 137 240 141.7C280 146.3 320 136.7 360 130.8C400 125 440 123 480 117.3C520 111.7 560 102.3 600 107.7C640 113 680 133 720 141.7C760 150.3 800 147.7 840 145.2C880 142.7 920 140.3 940 139.2L960 138L960 0L940 0C920 0 880 0 840 0C800 0 760 0 720 0C680 0 640 0 600 0C560 0 520 0 480 0C440 0 400 0 360 0C320 0 280 0 240 0C200 0 160 0 120 0C80 0 40 0 20 0L0 0Z" fill="#cadcfc"></path><path d="M0 129L20 124.8C40 120.7 80 112.3 120 106.5C160 100.7 200 97.3 240 99.5C280 101.7 320 109.3 360 108.7C400 108 440 99 480 91.7C520 84.3 560 78.7 600 83.7C640 88.7 680 104.3 720 115.7C760 127 800 134 840 127.7C880 121.3 920 101.7 940 91.8L960 82L960 0L940 0C920 0 880 0 840 0C800 0 760 0 720 0C680 0 640 0 600 0C560 0 520 0 480 0C440 0 400 0 360 0C320 0 280 0 240 0C200 0 160 0 120 0C80 0 40 0 20 0L0 0Z" fill="#bed4fc"></path><path d="M0 67L20 70.3C40 73.7 80 80.3 120 82.7C160 85 200 83 240 86.3C280 89.7 320 98.3 360 96C400 93.7 440 80.3 480 80.5C520 80.7 560 94.3 600 93.3C640 92.3 680 76.7 720 74.5C760 72.3 800 83.7 840 93.5C880 103.3 920 111.7 940 115.8L960 120L960 0L940 0C920 0 880 0 840 0C800 0 760 0 720 0C680 0 640 0 600 0C560 0 520 0 480 0C440 0 400 0 360 0C320 0 280 0 240 0C200 0 160 0 120 0C80 0 40 0 20 0L0 0Z" fill="#b1cdfb"></path><path d="M0 64L20 67.3C40 70.7 80 77.3 120 76.8C160 76.3 200 68.7 240 68.7C280 68.7 320 76.3 360 76.8C400 77.3 440 70.7 480 72.2C520 73.7 560 83.3 600 84.3C640 85.3 680 77.7 720 73C760 68.3 800 66.7 840 67.3C880 68 920 71 940 72.5L960 74L960 0L940 0C920 0 880 0 840 0C800 0 760 0 720 0C680 0 640 0 600 0C560 0 520 0 480 0C440 0 400 0 360 0C320 0 280 0 240 0C200 0 160 0 120 0C80 0 40 0 20 0L0 0Z" fill="#a5c5fb"></path><path d="M0 63L20 57.7C40 52.3 80 41.7 120 37.5C160 33.3 200 35.7 240 35.7C280 35.7 320 33.3 360 32.5C400 31.7 440 32.3 480 32.3C520 32.3 560 31.7 600 34.5C640 37.3 680 43.7 720 48.8C760 54 800 58 840 55.8C880 53.7 920 45.3 940 41.2L960 37L960 0L940 0C920 0 880 0 840 0C800 0 760 0 720 0C680 0 640 0 600 0C560 0 520 0 480 0C440 0 400 0 360 0C320 0 280 0 240 0C200 0 160 0 120 0C80 0 40 0 20 0L0 0Z" fill="#98befa"></path><path d="M0 31L20 27.7C40 24.3 80 17.7 120 15.3C160 13 200 15 240 15.7C280 16.3 320 15.7 360 18.5C400 21.3 440 27.7 480 30.2C520 32.7 560 31.3 600 28.7C640 26 680 22 720 23.5C760 25 800 32 840 33.2C880 34.3 920 29.7 940 27.3L960 25L960 0L940 0C920 0 880 0 840 0C800 0 760 0 720 0C680 0 640 0 600 0C560 0 520 0 480 0C440 0 400 0 360 0C320 0 280 0 240 0C200 0 160 0 120 0C80 0 40 0 20 0L0 0Z" fill="#8ab6f9"></path></svg>