<svg id="visual" viewBox="0 0 960 200" width="960" height="200" xmlns="http://www.w3.org/2000/svg" xmlns:xlink="http://www.w3.org/1999/xlink" version="1.1"><rect x="0" y="0" width="960" height="200" fill="#00246B"></rect><path d="M0 108L12.3 108.7C24.7 109.3 49.3 110.7 74 110.3C98.7 110 123.3 108 148 106.5C172.7 105 197.3 104 221.8 100.3C246.3 96.7 270.7 90.3 295.2 87.3C319.7 84.3 344.3 84.7 369 83.5C393.7 82.3 418.3 79.7 443 84.7C467.7 89.7 492.3 102.3 517 99.7C541.7 97 566.3 79 591 73.2C615.7 67.3 640.3 73.7 664.8 72.8C689.3 72 713.7 64 738.2 62.2C762.7 60.3 787.3 64.7 812 65C836.7 65.3 861.3 61.7 886 60C910.7 58.3 935.3 58.7 947.7 58.8L960 59L960 201L947.7 201C935.3 201 910.7 201 886 201C861.3 201 836.7 201 812 201C787.3 201 762.7 201 738.2 201C713.7 201 689.3 201 664.8 201C640.3 201 615.7 201 591 201C566.3 201 541.7 201 517 201C492.3 201 467.7 201 443 201C418.3 201 393.7 201 369 201C344.3 201 319.7 201 295.2 201C270.7 201 246.3 201 221.8 201C197.3 201 172.7 201 148 201C123.3 201 98.7 201 74 201C49.3 201 24.7 201 12.3 201L0 201Z" fill="#8ab6f9"></path><path d="M0 86L12.3 84.5C24.7 83 49.3 80 74 85.5C98.7 91 123.3 105 148 106.2C172.7 107.3 197.3 95.7 221.8 96.3C246.3 97 270.7 110 295.2 111C319.7 112 344.3 101 369 99.7C393.7 98.3 418.3 106.7 443 107.5C467.7 108.3 492.3 101.7 517 99.3C541.7 97 566.3 99 591 97.3C615.7 95.7 640.3 90.3 664.8 93.7C689.3 97 713.7 109 738.2 113.5C762.7 118 787.3 115 812 111.5C836.7 108 861.3 104 886 105.8C910.7 107.7 935.3 115.3 947.7 119.2L960 123L960 201L947.7 201C935.3 201 910.7 201 886 201C861.3 201 836.7 201 812 201C787.3 201 762.7 201 738.2 201C713.7 201 689.3 201 664.8 201C640.3 201 615.7 201 591 201C566.3 201 541.7 201 517 201C492.3 201 467.7 201 443 201C418.3 201 393.7 201 369 201C344.3 201 319.7 201 295.2 201C270.7 201 246.3 201 221.8 201C197.3 201 172.7 201 148 201C123.3 201 98.7 201 74 201C49.3 201 24.7 201 12.3 201L0 201Z" fill="#abc9fb"></path><path d="M0 134L12.3 131.8C24.7 129.7 49.3 125.3 74 120.3C98.7 115.3 123.3 109.7 148 112.5C172.7 115.3 197.3 126.7 221.8 129.5C246.3 132.3 270.7 126.7 295.2 126C319.7 125.3 344.3 129.7 369 126C393.7 122.3 418.3 110.7 443 109.8C467.7 109 492.3 119 517 126C541.7 133 566.3 137 591 134.7C615.7 132.3 640.3 123.7 664.8 121.3C689.3 119 713.7 123 738.2 120.7C762.7 118.3 787.3 109.7 812 109.8C836.7 110 861.3 119 886 121.8C910.7 124.7 935.3 121.3 947.7 119.7L960 118L960 201L947.7 201C935.3 201 910.7 201 886 201C861.3 201 836.7 201 812 201C787.3 201 762.7 201 738.2 201C713.7 201 689.3 201 664.8 201C640.3 201 615.7 201 591 201C566.3 201 541.7 201 517 201C492.3 201 467.7 201 443 201C418.3 201 393.7 201 369 201C344.3 201 319.7 201 295.2 201C270.7 201 246.3 201 221.8 201C197.3 201 172.7 201 148 201C123.3 201 98.7 201 74 201C49.3 201 24.7 201 12.3 201L0 201Z" fill="#cadcfc"></path><path d="M0 127L12.3 131.8C24.7 136.7 49.3 146.3 74 147C98.7 147.7 123.3 139.3 148 134.5C172.7 129.7 197.3 128.3 221.8 128C246.3 127.7 270.7 128.3 295.2 130.8C319.7 133.3 344.3 137.7 369 138.7C393.7 139.7 418.3 137.3 443 135.2C467.7 133 492.3 131 517 134.7C541.7 138.3 566.3 147.7 591 148C615.7 148.3 640.3 139.7 664.8 138.8C689.3 138 713.7 145 738.2 143C762.7 141 787.3 130 812 125C836.7 120 861.3 121 886 123.8C910.7 126.7 935.3 131.3 947.7 133.7L960 136L960 201L947.7 201C935.3 201 910.7 201 886 201C861.3 201 836.7 201 812 201C787.3 201 762.7 201 738.2 201C713.7 201 689.3 201 664.8 201C640.3 201 615.7 201 591 201C566.3 201 541.7 201 517 201C492.3 201 467.7 201 443 201C418.3 201 393.7 201 369 201C344.3 201 319.7 201 295.2 201C270.7 201 246.3 201 221.8 201C197.3 201 172.7 201 148 201C123.3 201 98.7 201 74 201C49.3 201 24.7 201 12.3 201L0 201Z" fill="#cadcfc"></path><path d="M0 163L12.3 164.5C24.7 166 49.3 169 74 169C98.7 169 123.3 166 148 166.8C172.7 167.7 197.3 172.3 221.8 169.2C246.3 166 270.7 155 295.2 150.3C319.7 145.7 344.3 147.3 369 151.5C393.7 155.7 418.3 162.3 443 166.2C467.7 170 492.3 171 517 166.5C541.7 162 566.3 152 591 149.3C615.7 146.7 640.3 151.3 664.8 154C689.3 156.7 713.7 157.3 738.2 155.8C762.7 154.3 787.3 150.7 812 150.5C836.7 150.3 861.3 153.7 886 152.5C910.7 151.3 935.3 145.7 947.7 142.8L960 140L960 201L947.7 201C935.3 201 910.7 201 886 201C861.3 201 836.7 201 812 201C787.3 201 762.7 201 738.2 201C713.7 201 689.3 201 664.8 201C640.3 201 615.7 201 591 201C566.3 201 541.7 201 517 201C492.3 201 467.7 201 443 201C418.3 201 393.7 201 369 201C344.3 201 319.7 201 295.2 201C270.7 201 246.3 201 221.8 201C197.3 201 172.7 201 148 201C123.3 201 98.7 201 74 201C49.3 201 24.7 201 12.3 201L0 201Z" fill="#abc9fb"></path><path d="M0 192L12.3 187.8C24.7 183.7 49.3 175.3 74 173.8C98.7 172.3 123.3 177.7 148 180.7C172.7 183.7 197.3 184.3 221.8 183.5C246.3 182.7 270.7 180.3 295.2 178.2C319.7 176 344.3 174 369 171.2C393.7 168.3 418.3 164.7 443 164C467.7 163.3 492.3 165.7 517 167.7C541.7 169.7 566.3 171.3 591 173.7C615.7 176 640.3 179 664.8 177.7C689.3 176.3 713.7 170.7 738.2 172C762.7 173.3 787.3 181.7 812 184.8C836.7 188 861.3 186 886 185.5C910.7 185 935.3 186 947.7 186.5L960 187L960 201L947.7 201C935.3 201 910.7 201 886 201C861.3 201 836.7 201 812 201C787.3 201 762.7 201 738.2 201C713.7 201 689.3 201 664.8 201C640.3 201 615.7 201 591 201C566.3 201 541.7 201 517 201C492.3 201 467.7 201 443 201C418.3 201 393.7 201 369 201C344.3 201 319.7 201 295.2 201C270.7 201 246.3 201 221.8 201C197.3 201 172.7 201 148 201C123.3 201 98.7 201 74 201C49.3 201 24.7 201 12.3 201L0 201Z" fill="#8ab6f9"></path></svg>