<svg id="visual" viewBox="0 0 960 200" width="960" height="200" xmlns="http://www.w3.org/2000/svg" xmlns:xlink="http://www.w3.org/1999/xlink" version="1.1"><rect x="0" y="0" width="960" height="200" fill="#002a80"></rect><path d="M0 109L14.5 109.3C29 109.7 58 110.3 87.2 109C116.3 107.7 145.7 104.3 174.8 108.5C204 112.7 233 124.3 262 123.3C291 122.3 320 108.7 349 101.3C378 94 407 93 436.2 98C465.3 103 494.7 114 523.8 120.3C553 126.7 582 128.3 611 127.8C640 127.3 669 124.7 698 122.3C727 120 756 118 785.2 113.3C814.3 108.7 843.7 101.3 872.8 103.5C902 105.7 931 117.3 945.5 123.2L960 129L960 0L945.5 0C931 0 902 0 872.8 0C843.7 0 814.3 0 785.2 0C756 0 727 0 698 0C669 0 640 0 611 0C582 0 553 0 523.8 0C494.7 0 465.3 0 436.2 0C407 0 378 0 349 0C320 0 291 0 262 0C233 0 204 0 174.8 0C145.7 0 116.3 0 87.2 0C58 0 29 0 14.5 0L0 0Z" fill="#8ab6f9"></path><path d="M0 91L14.5 90.2C29 89.3 58 87.7 87.2 86.7C116.3 85.7 145.7 85.3 174.8 87.2C204 89 233 93 262 95C291 97 320 97 349 95C378 93 407 89 436.2 91.3C465.3 93.7 494.7 102.3 523.8 103.2C553 104 582 97 611 96.2C640 95.3 669 100.7 698 99.7C727 98.7 756 91.3 785.2 90.7C814.3 90 843.7 96 872.8 96.5C902 97 931 92 945.5 89.5L960 87L960 0L945.5 0C931 0 902 0 872.8 0C843.7 0 814.3 0 785.2 0C756 0 727 0 698 0C669 0 640 0 611 0C582 0 553 0 523.8 0C494.7 0 465.3 0 436.2 0C407 0 378 0 349 0C320 0 291 0 262 0C233 0 204 0 174.8 0C145.7 0 116.3 0 87.2 0C58 0 29 0 14.5 0L0 0Z" fill="#b3c3e7"></path><path d="M0 61L14.5 62.5C29 64 58 67 87.2 71C116.3 75 145.7 80 174.8 78.2C204 76.3 233 67.7 262 66.8C291 66 320 73 349 76.3C378 79.7 407 79.3 436.2 80.3C465.3 81.3 494.7 83.7 523.8 81.7C553 79.7 582 73.3 611 72.5C640 71.7 669 76.3 698 78.5C727 80.7 756 80.3 785.2 81.2C814.3 82 843.7 84 872.8 81.5C902 79 931 72 945.5 68.5L960 65L960 0L945.5 0C931 0 902 0 872.8 0C843.7 0 814.3 0 785.2 0C756 0 727 0 698 0C669 0 640 0 611 0C582 0 553 0 523.8 0C494.7 0 465.3 0 436.2 0C407 0 378 0 349 0C320 0 291 0 262 0C233 0 204 0 174.8 0C145.7 0 116.3 0 87.2 0C58 0 29 0 14.5 0L0 0Z" fill="#d1d2d5"></path><path d="M0 61L14.5 62.2C29 63.3 58 65.7 87.2 67.8C116.3 70 145.7 72 174.8 68.5C204 65 233 56 262 52.8C291 49.7 320 52.3 349 54.5C378 56.7 407 58.3 436.2 61.2C465.3 64 494.7 68 523.8 67.8C553 67.7 582 63.3 611 60.8C640 58.3 669 57.7 698 57.2C727 56.7 756 56.3 785.2 56.8C814.3 57.3 843.7 58.7 872.8 57C902 55.3 931 50.7 945.5 48.3L960 46L960 0L945.5 0C931 0 902 0 872.8 0C843.7 0 814.3 0 785.2 0C756 0 727 0 698 0C669 0 640 0 611 0C582 0 553 0 523.8 0C494.7 0 465.3 0 436.2 0C407 0 378 0 349 0C320 0 291 0 262 0C233 0 204 0 174.8 0C145.7 0 116.3 0 87.2 0C58 0 29 0 14.5 0L0 0Z" fill="#d1d2d5"></path><path d="M0 41L14.5 39C29 37 58 33 87.2 32C116.3 31 145.7 33 174.8 34C204 35 233 35 262 35.3C291 35.7 320 36.3 349 39C378 41.7 407 46.3 436.2 48.5C465.3 50.7 494.7 50.3 523.8 47C553 43.7 582 37.3 611 36.2C640 35 669 39 698 40.8C727 42.7 756 42.3 785.2 42.8C814.3 43.3 843.7 44.7 872.8 46.5C902 48.3 931 50.7 945.5 51.8L960 53L960 0L945.5 0C931 0 902 0 872.8 0C843.7 0 814.3 0 785.2 0C756 0 727 0 698 0C669 0 640 0 611 0C582 0 553 0 523.8 0C494.7 0 465.3 0 436.2 0C407 0 378 0 349 0C320 0 291 0 262 0C233 0 204 0 174.8 0C145.7 0 116.3 0 87.2 0C58 0 29 0 14.5 0L0 0Z" fill="#b3c3e7"></path><path d="M0 16L14.5 15.3C29 14.7 58 13.3 87.2 12.7C116.3 12 145.7 12 174.8 14C204 16 233 20 262 22.3C291 24.7 320 25.3 349 26.8C378 28.3 407 30.7 436.2 29.5C465.3 28.3 494.7 23.7 523.8 23.5C553 23.3 582 27.7 611 29.5C640 31.3 669 30.7 698 30.5C727 30.3 756 30.7 785.2 27.8C814.3 25 843.7 19 872.8 16.7C902 14.3 931 15.7 945.5 16.3L960 17L960 0L945.5 0C931 0 902 0 872.8 0C843.7 0 814.3 0 785.2 0C756 0 727 0 698 0C669 0 640 0 611 0C582 0 553 0 523.8 0C494.7 0 465.3 0 436.2 0C407 0 378 0 349 0C320 0 291 0 262 0C233 0 204 0 174.8 0C145.7 0 116.3 0 87.2 0C58 0 29 0 14.5 0L0 0Z" fill="#8ab6f9"></path></svg>