<svg id="visual" viewBox="0 0 900 100" width="900" height="100" xmlns="http://www.w3.org/2000/svg" xmlns:xlink="http://www.w3.org/1999/xlink" version="1.1"><rect x="0" y="0" width="900" height="100" fill="#00246B"></rect><path d="M0 43L21.5 41.3C43 39.7 86 36.3 128.8 41C171.7 45.7 214.3 58.3 257.2 62.2C300 66 343 61 385.8 54.8C428.7 48.7 471.3 41.3 514.2 43.8C557 46.3 600 58.7 642.8 57.8C685.7 57 728.3 43 771.2 38.5C814 34 857 39 878.5 41.5L900 44L900 101L878.5 101C857 101 814 101 771.2 101C728.3 101 685.7 101 642.8 101C600 101 557 101 514.2 101C471.3 101 428.7 101 385.8 101C343 101 300 101 257.2 101C214.3 101 171.7 101 128.8 101C86 101 43 101 21.5 101L0 101Z" fill="#8ab6f9" stroke-linecap="round" stroke-linejoin="miter"></path></svg>